<svg width="171" height="30" viewBox="0 0 171 30" fill="none" xmlns="http://www.w3.org/2000/svg">
<path d="M163.836 29.5694V0.288086H170.613V29.5694H163.836Z" fill="#36C7E7"/>
<path d="M145.319 29.5694V5.80971H135.949V0.288086H161.466V5.80971H152.096V29.5694H145.319Z" fill="#36C7E7"/>
<path d="M104.576 29.5694V0.288086H117.251C119.872 0.288086 122.131 0.720335 124.027 1.58483C125.924 2.42144 127.388 3.63453 128.42 5.22409C129.451 6.81365 129.967 8.70996 129.967 10.913C129.967 13.0882 129.451 14.9706 128.42 16.5602C127.388 18.1218 125.924 19.321 124.027 20.1576C122.131 20.9942 119.872 21.4125 117.251 21.4125H108.341L111.353 18.4425V29.5694H104.576ZM123.191 29.5694L115.87 18.9445H123.107L130.511 29.5694H123.191ZM111.353 19.1955L108.341 16.0164H116.874C118.966 16.0164 120.528 15.5702 121.559 14.6778C122.591 13.7575 123.107 12.5026 123.107 10.913C123.107 9.29559 122.591 8.04067 121.559 7.14829C120.528 6.25591 118.966 5.80971 116.874 5.80971H108.341L111.353 2.58876V19.1955Z" fill="#36C7E7"/>
<path d="M27.887 29.5694V0.288086H33.4923L45.9577 20.9524H42.9878L55.2441 0.288086H60.8076L60.8912 29.5694H54.533L54.4912 10.0346H55.6624L45.8741 26.474H42.8205L32.823 10.0346H34.2452V29.5694H27.887Z" fill="#36C7E7"/>
<path d="M11.949 29.5694C9.60113 29.5694 7.35109 29.2729 5.19887 28.6797C3.04665 28.0595 1.31369 27.2641 0 26.2935L2.30595 21.3593C3.56374 22.2221 5.04514 22.9366 6.75014 23.5029C8.4831 24.0421 10.23 24.3117 11.9909 24.3117C13.3326 24.3117 14.4087 24.1904 15.2193 23.9477C16.0578 23.6781 16.6727 23.3141 17.064 22.8558C17.4553 22.3974 17.651 21.8716 17.651 21.2785C17.651 20.5235 17.3435 19.9303 16.7286 19.4989C16.1137 19.0406 15.3031 18.6766 14.2969 18.4069C13.2907 18.1103 12.1726 17.8407 10.9428 17.5981C9.74089 17.3284 8.52502 17.0049 7.29518 16.6274C6.09329 16.2499 4.98923 15.7646 3.983 15.1714C2.97677 14.5782 2.15222 13.7963 1.50935 12.8257C0.894428 11.855 0.586969 10.6148 0.586969 9.10485C0.586969 7.48709 1.03418 6.01763 1.92861 4.69647C2.85099 3.34834 4.22059 2.28331 6.03739 1.5014C7.88215 0.692524 10.1881 0.288086 12.9552 0.288086C14.8 0.288086 16.6168 0.503786 18.4057 0.935187C20.1945 1.33962 21.7737 1.95976 23.1433 2.79561L21.047 7.7702C19.6774 7.01525 18.3078 6.46252 16.9382 6.112C15.5686 5.73453 14.227 5.54579 12.9133 5.54579C11.5996 5.54579 10.5235 5.69408 9.68498 5.99067C8.84646 6.28726 8.24551 6.67822 7.88215 7.16354C7.51879 7.6219 7.33711 8.16116 7.33711 8.7813C7.33711 9.50929 7.64457 10.1025 8.25949 10.5608C8.87441 10.9922 9.68498 11.3427 10.6912 11.6124C11.6974 11.882 12.8015 12.1516 14.0034 12.4212C15.2332 12.6909 16.4491 13.0009 17.651 13.3515C18.8808 13.702 19.9989 14.1738 21.0051 14.767C22.0113 15.3602 22.8219 16.1421 23.4368 17.1127C24.0797 18.0834 24.4011 19.3102 24.4011 20.7931C24.4011 22.3839 23.9399 23.8399 23.0176 25.1611C22.0952 26.4822 20.7116 27.5473 18.8669 28.3561C17.05 29.165 14.7441 29.5694 11.949 29.5694Z" fill="#36C7E7"/>
<path d="M66.2317 29.5694L79.2828 0.288086H85.9757L99.0686 29.5694H91.9575L81.2488 3.71819H83.926L73.1756 29.5694H66.2317Z" fill="#36C7E7"/>
</svg>
