<svg width="171" height="30" viewBox="0 0 171 30" fill="none" xmlns="http://www.w3.org/2000/svg">
<path d="M163.836 29.4V0.118652H170.613V29.4H163.836Z" fill="#18A8C9"/>
<path d="M145.319 29.4V5.64028H135.949V0.118652H161.466V5.64028H152.096V29.4H145.319Z" fill="#18A8C9"/>
<path d="M104.576 29.4V0.118652H117.251C119.872 0.118652 122.131 0.550901 124.027 1.4154C125.924 2.25201 127.388 3.46509 128.42 5.05465C129.451 6.64421 129.967 8.54053 129.967 10.7436C129.967 12.9188 129.451 14.8012 128.42 16.3907C127.388 17.9524 125.924 19.1515 124.027 19.9881C122.131 20.8248 119.872 21.2431 117.251 21.2431H108.341L111.353 18.2731V29.4H104.576ZM123.191 29.4L115.87 18.7751H123.107L130.511 29.4H123.191ZM111.353 19.026L108.341 15.8469H116.874C118.966 15.8469 120.528 15.4007 121.559 14.5083C122.591 13.5881 123.107 12.3332 123.107 10.7436C123.107 9.12616 122.591 7.87124 121.559 6.97886C120.528 6.08647 118.966 5.64028 116.874 5.64028H108.341L111.353 2.41933V19.026Z" fill="#18A8C9"/>
<path d="M27.887 29.4V0.118652H33.4923L45.9577 20.7829H42.9878L55.2441 0.118652H60.8076L60.8912 29.4H54.533L54.4912 9.86516H55.6624L45.8741 26.3046H42.8205L32.823 9.86516H34.2452V29.4H27.887Z" fill="#18A8C9"/>
<path d="M11.949 29.4C9.60113 29.4 7.35109 29.1034 5.19887 28.5102C3.04665 27.8901 1.31369 27.0947 0 26.1241L2.30595 21.1899C3.56374 22.0527 5.04514 22.7672 6.75014 23.3334C8.4831 23.8727 10.23 24.1423 11.9909 24.1423C13.3326 24.1423 14.4087 24.021 15.2193 23.7783C16.0578 23.5087 16.6727 23.1447 17.064 22.6863C17.4553 22.228 17.651 21.7022 17.651 21.109C17.651 20.3541 17.3435 19.7609 16.7286 19.3295C16.1137 18.8711 15.3031 18.5071 14.2969 18.2375C13.2907 17.9409 12.1726 17.6713 10.9428 17.4286C9.74089 17.159 8.52502 16.8354 7.29518 16.458C6.09329 16.0805 4.98923 15.5952 3.983 15.002C2.97677 14.4088 2.15222 13.6269 1.50935 12.6562C0.894428 11.6856 0.586969 10.4453 0.586969 8.93541C0.586969 7.31766 1.03418 5.8482 1.92861 4.52703C2.85099 3.1789 4.22059 2.11388 6.03739 1.33197C7.88215 0.523091 10.1881 0.118652 12.9552 0.118652C14.8 0.118652 16.6168 0.334353 18.4057 0.765753C20.1945 1.17019 21.7737 1.79033 23.1433 2.62617L21.047 7.60077C19.6774 6.84581 18.3078 6.29308 16.9382 5.94257C15.5686 5.56509 14.227 5.37635 12.9133 5.37635C11.5996 5.37635 10.5235 5.52465 9.68498 5.82124C8.84646 6.11783 8.24551 6.50878 7.88215 6.99411C7.51879 7.45247 7.33711 7.99172 7.33711 8.61186C7.33711 9.33985 7.64457 9.93303 8.25949 10.3914C8.87441 10.8228 9.68498 11.1733 10.6912 11.4429C11.6974 11.7126 12.8015 11.9822 14.0034 12.2518C15.2332 12.5214 16.4491 12.8315 17.651 13.182C18.8808 13.5325 19.9989 14.0044 21.0051 14.5976C22.0113 15.1907 22.8219 15.9726 23.4368 16.9433C24.0797 17.914 24.4011 19.1407 24.4011 20.6237C24.4011 22.2145 23.9399 23.6705 23.0176 24.9916C22.0952 26.3128 20.7116 27.3778 18.8669 28.1867C17.05 28.9956 14.7441 29.4 11.949 29.4Z" fill="#18A8C9"/>
<path d="M66.2317 29.4L79.2828 0.118652H85.9757L99.0686 29.4H91.9575L81.2488 3.54875H83.926L73.1756 29.4H66.2317Z" fill="#18A8C9"/>
</svg>
