<?xml version="1.0" encoding="UTF-8"?>
<svg xmlns="http://www.w3.org/2000/svg" version="1.1" viewBox="0 0 1042.17 326.09">
  <defs>
    <style>
      .cls-1 {
        fill: #ff8736;
      }

      .cls-2 {
        fill: none;
      }

      .cls-3 {
        fill: #71dbd3;
      }
    </style>
  </defs>
  <!-- Generator: Adobe Illustrator 28.7.1, SVG Export Plug-In . SVG Version: 1.2.0 Build 142)  -->
  <g>
    <g id="Layer_1">
      <g>
        <path class="cls-2" d="M619.44,119.1h-18.86c-4.06,0-7.35,3.29-7.35,7.35v73.19c0,4.06,3.29,7.35,7.35,7.35h18.86c26.2,0,44.21-15.62,44.21-43.94s-18.01-43.94-44.21-43.94Z"/>
        <path class="cls-3" d="M77.75,255.7h47.77c4.06,0,7.35-3.29,7.35-7.35v-44.59c0-4.06,3.29-7.35,7.35-7.35h62.59c4.06,0,7.35-3.29,7.35-7.35v-32.42c0-4.06-3.29-7.35-7.35-7.35h-62.59c-4.06,0-7.35-3.29-7.35-7.35v-17.07c0-4.06,3.29-7.35,7.35-7.35h73.45c4.06,0,7.35-3.29,7.35-7.35v-32.41c0-4.06-3.29-7.35-7.35-7.35H77.75c-4.06,0-7.35,3.29-7.35,7.35v170.6c0,4.06,3.29,7.35,7.35,7.35Z"/>
        <path class="cls-3" d="M414.53,140.28c0-42.88-32.82-69.88-84.44-69.88h-81.86c-4.06,0-7.35,3.29-7.35,7.35v170.6c0,4.06,3.29,7.35,7.35,7.35h47.77c4.06,0,7.35-3.29,7.35-7.35v-31.89c0-4.06,3.29-7.35,7.35-7.35h5.69c2.44,0,4.72,1.21,6.09,3.23l27.13,40.13c1.37,2.02,3.65,3.23,6.09,3.23h48.91c5.9,0,9.4-6.61,6.08-11.49l-26.67-39.19c-2.28-3.35-1.44-7.98,1.96-10.18,18.27-11.8,28.55-30.5,28.55-54.56ZM326.11,161.99h-15.41c-4.06,0-7.35-3.29-7.35-7.35v-28.71c0-4.06,3.29-7.35,7.35-7.35h15.41c17.21,0,25.42,8.2,25.42,21.7s-8.21,21.71-25.42,21.71Z"/>
        <rect class="cls-3" x="438.1" y="70.4" width="62.47" height="185.3" rx="7.35" ry="7.35"/>
        <path class="cls-3" d="M622.08,70.4h-83.98c-4.06,0-7.35,3.29-7.35,7.35v170.6c0,4.06,3.29,7.35,7.35,7.35h83.98c61.95,0,104.57-35.2,104.57-92.65s-42.61-92.65-104.57-92.65ZM619.44,206.99h-18.86c-4.06,0-7.35-3.29-7.35-7.35v-73.19c0-4.06,3.29-7.35,7.35-7.35h18.86c26.2,0,44.21,15.62,44.21,43.94s-18.01,43.94-44.21,43.94Z"/>
        <path class="cls-3" d="M914.61,204.14l.22,44.25c.03,4.04,3.31,7.31,7.35,7.31h42.24c4.07,0,7.36-3.3,7.35-7.37v-119.03c-.02-7.46-10.17-10.15-13.98-3.74l-40.17,67.51c-1.99,3.35-3.03,7.18-3.01,11.07Z"/>
        <path class="cls-3" d="M804.66,204.14l-.22,44.25c-.03,4.04-3.31,7.31-7.35,7.31h-42.24c-4.07,0-7.36-3.3-7.35-7.37v-119.03c.02-7.46,10.17-10.15,13.98-3.74l40.17,67.51c1.99,3.35,3.03,7.18,3.01,11.07Z"/>
        <path class="cls-1" d="M997.76,35.65c-8.29-.73-16.8-.59-25.01.52-1.03.12-2.05.32-3.07.49-1.73.29-3.44.63-5.13,1.02-1.06.25-2.11.49-3.15.78-7.92,2.15-15.29,5.39-21.47,10.05-.21.16-.39.35-.6.52-8.29,5.83-15.46,13.31-20.82,22.3l-51.15,85.79c-2.83,4.75-9.7,4.79-12.59.07l-51.84-84.82c-1.34-2.19-3.71-3.52-6.27-3.52h-39.89c-4.21,0-9.65,3.86-5.29,10.81l68.46,114.88,24.48,39.45c1.34,2.17,3.71,3.48,6.26,3.48l19.27-.04c2.59,0,4.98-1.37,6.31-3.59l81.26-136.41c5.43-8.69,20.82-30.7,44.32-43.02,8.69-4.56,5.7-17.88-4.07-18.74Z"/>
        <rect class="cls-2" y="0" width="1042.17" height="326.09"/>
      </g>
    </g>
  </g>
</svg>