<svg width="171" height="30" viewBox="0 0 171 30" fill="none" xmlns="http://www.w3.org/2000/svg">
<path d="M163.836 29.2814V0H170.613V29.2814H163.836Z" fill="white"/>
<path d="M145.319 29.2814V5.52163H135.949V0H161.466V5.52163H152.096V29.2814H145.319Z" fill="white"/>
<path d="M104.576 29.2814V0H117.251C119.872 0 122.131 0.432249 124.027 1.29675C125.924 2.13336 127.388 3.34644 128.42 4.936C129.451 6.52556 129.967 8.42188 129.967 10.625C129.967 12.8001 129.451 14.6825 128.42 16.2721C127.388 17.8337 125.924 19.0329 124.027 19.8695C122.131 20.7061 119.872 21.1244 117.251 21.1244H108.341L111.353 18.1544V29.2814H104.576ZM123.191 29.2814L115.87 18.6564H123.107L130.511 29.2814H123.191ZM111.353 18.9074L108.341 15.7283H116.874C118.966 15.7283 120.528 15.2821 121.559 14.3897C122.591 13.4694 123.107 12.2145 123.107 10.625C123.107 9.0075 122.591 7.75259 121.559 6.8602C120.528 5.96782 118.966 5.52163 116.874 5.52163H108.341L111.353 2.30068V18.9074Z" fill="white"/>
<path d="M27.887 29.2814V0H33.4922L45.9577 20.6643H42.9878L55.2441 0H60.8076L60.8912 29.2814H54.533L54.4912 9.74651H55.6624L45.8741 26.1859H42.8205L32.823 9.74651H34.2452V29.2814H27.887Z" fill="white"/>
<path d="M11.949 29.2814C9.60113 29.2814 7.35109 28.9848 5.19887 28.3916C3.04665 27.7715 1.31369 26.9761 0 26.0054L2.30595 21.0713C3.56374 21.9341 5.04514 22.6486 6.75014 23.2148C8.4831 23.754 10.23 24.0237 11.9909 24.0237C13.3326 24.0237 14.4087 23.9023 15.2193 23.6597C16.0578 23.39 16.6727 23.026 17.064 22.5677C17.4553 22.1093 17.651 21.5835 17.651 20.9904C17.651 20.2354 17.3435 19.6422 16.7286 19.2108C16.1137 18.7525 15.3031 18.3885 14.2969 18.1188C13.2907 17.8223 12.1726 17.5526 10.9428 17.31C9.74089 17.0403 8.52502 16.7168 7.29518 16.3393C6.09329 15.9618 4.98923 15.4765 3.983 14.8833C2.97677 14.2902 2.15222 13.5082 1.50935 12.5376C0.894428 11.5669 0.586969 10.3267 0.586969 8.81676C0.586969 7.19901 1.03418 5.72955 1.92861 4.40838C2.85099 3.06025 4.22059 1.99523 6.03739 1.21331C7.88215 0.404438 10.1881 0 12.9552 0C14.8 0 16.6168 0.2157 18.4057 0.647101C20.1945 1.05154 21.7737 1.67168 23.1433 2.50752L21.047 7.48211C19.6774 6.72716 18.3078 6.17443 16.9382 5.82392C15.5686 5.44644 14.227 5.2577 12.9133 5.2577C11.5996 5.2577 10.5235 5.406 9.68498 5.70258C8.84646 5.99917 8.24551 6.39013 7.88215 6.87545C7.51879 7.33382 7.33711 7.87307 7.33711 8.49321C7.33711 9.2212 7.64457 9.81438 8.25949 10.2727C8.87441 10.7041 9.68499 11.0547 10.6912 11.3243C11.6974 11.5939 12.8015 11.8635 14.0034 12.1332C15.2332 12.4028 16.4491 12.7129 17.651 13.0634C18.8808 13.4139 19.9989 13.8857 21.0051 14.4789C22.0113 15.0721 22.8219 15.854 23.4368 16.8246C24.0797 17.7953 24.4011 19.0221 24.4011 20.505C24.4011 22.0958 23.9399 23.5518 23.0176 24.873C22.0952 26.1941 20.7116 27.2592 18.8669 28.068C17.05 28.8769 14.7441 29.2814 11.949 29.2814Z" fill="white"/>
<path d="M66.2317 29.2814L79.2828 0H85.9757L99.0686 29.2814H91.9575L81.2488 3.4301H83.926L73.1756 29.2814H66.2317Z" fill="white"/>
</svg>
