<svg width="200" height="160" viewBox="0 0 200 160" fill="none" xmlns="http://www.w3.org/2000/svg">
<path d="M200 160H0V0H200V160ZM11.6092 148.382H188.443V11.6175H11.6092V148.382Z" fill="#222831"/>
<path d="M41.0478 45.4846C41.0478 43.0988 41.6179 41.128 42.8099 39.6758C43.9501 38.2236 45.453 37.5494 47.3706 37.4976C49.0291 37.4976 50.3248 38.0681 51.3095 39.2091C52.2942 40.4019 52.8125 42.0097 52.8125 43.9805V68.5121H71.0555V45.4846C71.0555 43.0988 71.6256 41.128 72.7658 39.6758C73.906 38.2755 75.3572 37.5494 77.2748 37.4976C78.9332 37.4976 80.2289 38.0681 81.2136 39.2091C82.1983 40.4019 82.7166 42.0097 82.7166 43.9805V68.5121H100.96V39.2091C100.96 35.6823 100.286 32.5186 98.8866 29.8217C97.4873 27.1248 95.5178 24.9984 92.9783 23.4943C90.4388 22.0421 87.4847 21.2642 84.2196 21.2642C80.5917 21.2642 77.3784 22.1458 74.6834 23.9092C72.403 25.4133 70.4854 27.436 69.0861 29.9773C67.8423 27.4878 66.0283 25.4133 63.7479 23.9611C61.0529 22.1977 57.8397 21.2642 54.2118 21.2642C51.0503 21.2642 48.1999 21.9384 45.764 23.2869C43.9501 24.2723 42.3953 25.5689 41.0478 27.1766V21.9903H22.8047V68.5121H41.0478V45.4846Z" fill="#222831"/>
<path d="M119.202 67.7342C118.373 69.3939 117.025 70.1718 115.004 70.1718C114.019 70.1718 113.086 70.0162 112.257 69.6532C111.428 69.2901 110.495 68.6678 109.51 67.7861L108.837 67.1637L101.011 79.7148L101.581 80.1297C103.913 81.893 106.297 83.1896 108.629 84.0195C111.013 84.8493 113.657 85.2642 116.507 85.2642C121.171 85.2642 125.162 84.1232 128.375 81.9449C131.589 79.7666 134.128 76.3436 135.942 71.7796L155.17 21.9384H136.823L128.997 47.7666L119.772 21.9384H100.959L119.876 66.4376L119.202 67.7342Z" fill="#222831"/>
<path d="M63.9034 93.9773C60.6383 91.9546 56.855 90.9691 52.6052 90.9691C49.962 90.9691 47.5261 91.4878 45.3494 92.5251C43.7946 93.2512 42.3434 94.2884 41.0996 95.5332V79.8184H22.8047V138.113H41.0478V134.12C42.3434 135.365 43.8464 136.402 45.5049 137.128C47.7334 138.165 50.2729 138.684 53.0198 138.684C57.2177 138.684 60.9493 137.698 64.1626 135.78C67.3758 133.861 69.8635 131.06 71.6256 127.481C73.3359 123.955 74.217 119.805 74.217 115.086C74.217 110.366 73.3359 106.113 71.522 102.483C69.708 98.8525 67.1685 95.9999 63.9034 93.9773ZM55.7666 114.671C55.7666 117.472 55.0928 119.702 53.6935 121.413C52.346 123.073 50.5839 123.903 48.3553 123.903C46.1786 123.903 44.4165 123.073 43.069 121.413C41.7215 119.702 40.9959 117.42 40.9959 114.671C40.9959 111.87 41.6697 109.64 43.069 107.929C44.4165 106.269 46.1268 105.439 48.3553 105.439C50.5839 105.439 52.346 106.269 53.6935 107.929C55.0928 109.588 55.7666 111.87 55.7666 114.671Z" fill="#222831"/>
<path d="M124.127 102.276C122.002 98.6969 118.944 95.8963 115.109 93.9254C111.274 91.9546 106.713 90.9692 101.634 90.9692C96.5032 90.9692 91.9942 91.9546 88.1072 93.9254C84.2202 95.8963 81.1624 98.6969 79.0375 102.276C76.9126 105.854 75.8242 110.055 75.8242 114.827C75.8242 119.546 76.9126 123.747 79.0375 127.326C81.1624 130.956 84.2202 133.757 88.1072 135.728C91.9942 137.699 96.5032 138.684 101.634 138.684C106.765 138.684 111.274 137.699 115.109 135.728C118.996 133.757 122.002 130.956 124.127 127.326C126.252 123.695 127.34 119.494 127.34 114.827C127.34 110.055 126.252 105.854 124.127 102.276ZM96.244 108.24C97.5915 106.58 99.3536 105.75 101.582 105.75C103.759 105.75 105.521 106.58 106.869 108.24C108.216 109.951 108.942 112.233 108.942 114.982C108.942 117.835 108.268 120.117 106.869 121.776C105.521 123.436 103.811 124.214 101.582 124.214C99.3018 124.214 97.5915 123.436 96.244 121.776C94.8965 120.117 94.1709 117.835 94.1709 114.982C94.2228 112.233 94.8965 109.951 96.244 108.24Z" fill="#222831"/>
<path d="M163.878 114.256L178.39 91.5397H158.385L151.906 102.431L146.102 91.5397H125.06L139.675 114.308L124.127 138.113H144.339L151.803 126.133L158.333 138.113H179.426L163.878 114.256Z" fill="#222831"/>
</svg>
